<?xml version="1.0" encoding="UTF-8" standalone="no"?>
<!DOCTYPE svg PUBLIC "-//W3C//DTD SVG 1.1//EN" "http://www.w3.org/Graphics/SVG/1.1/DTD/svg11.dtd">
<svg width="100%" height="100%" viewBox="0 0 708 572" version="1.1" xmlns="http://www.w3.org/2000/svg" xmlns:xlink="http://www.w3.org/1999/xlink" xml:space="preserve" xmlns:serif="http://www.serif.com/" style="fill-rule:evenodd;clip-rule:evenodd;stroke-linejoin:round;stroke-miterlimit:2;">
    <g transform="matrix(1,0,0,1,-59.1923,-96.9805)">
        <g>
            <g>
                <path d="M354.164,542.576L268.592,542.576L318.668,280.939L306.774,280.939L306.774,259.409L493.226,259.409L493.226,280.939L481.332,280.939L531.408,542.576L438.064,542.576L438.064,476.931C438.164,475.751 438.215,474.557 438.215,473.351C438.215,450.135 419.366,431.287 396.15,431.287C372.934,431.287 354.086,450.135 354.086,473.351C354.086,474.217 354.112,475.077 354.164,475.93L354.164,542.576Z"/>
                <g transform="matrix(1,0,0,1,25.5189,0)">
                    <path d="M377.394,117.6L377.394,162.904L371.29,162.904L371.29,97.146L371.373,97.146L371.306,96.98L387.54,96.98C422.104,111.236 437.058,108.094 437.058,108.094C417.992,116.456 400.513,112.517 394.36,110.639C413.669,119.696 437.242,115.542 437.242,115.542C428.339,121.477 415.538,121.71 415.538,121.71L405.471,121.71C393.776,121.943 377.483,117.753 377.483,117.753L377.394,117.6Z"/>
                    <path d="M486.59,187.875L510.298,187.875L459.245,248.084L293.879,248.084L238.665,187.875L264.089,187.875L264.089,162.441L295.662,162.441L295.662,187.875L311.821,187.875L311.821,162.441L343.394,162.441L343.394,187.875L359.553,187.875L359.553,162.441L391.126,162.441L391.126,187.875L407.285,187.875L407.285,162.441L438.858,162.441L438.858,187.875L455.017,187.875L455.017,162.441L486.59,162.441L486.59,187.875Z"/>
                </g>
                <g transform="matrix(1,0,0,1,-101.401,102.384)">
                    <path d="M391.472,184.999L407.217,184.999L399.12,221.509L281.637,221.509L245.838,184.999L264.106,184.999L264.106,162.387L295.582,162.387L295.582,184.999L312.051,184.999L312.051,162.387L343.527,162.387L343.527,184.999L359.996,184.999L359.996,162.387L391.472,162.387L391.472,184.999Z"/>
                </g>
                <g transform="matrix(-1,0,0,1,900.625,102.384)">
                    <path d="M391.472,184.999L407.217,184.999L399.12,221.509L281.637,221.509L245.838,184.999L264.106,184.999L264.106,162.387L295.582,162.387L295.582,184.999L312.051,184.999L312.051,162.387L343.527,162.387L343.527,184.999L359.996,184.999L359.996,162.387L391.472,162.387L391.472,184.999Z"/>
                </g>
                <g transform="matrix(1,0,0,1,6.93648,0)">
                    <path d="M134.063,543.365L169.778,354.803L155.737,354.803L155.827,332.939L289.007,332.939L247.498,541.516C233.539,540.313 220.561,539.442 208.497,538.857C180.478,538.403 155.447,540.365 134.063,543.365Z"/>
                </g>
                <g transform="matrix(-1,0,0,1,792.288,0)">
                    <path d="M135.438,536.108C160.974,548.681 195.856,559.887 242.859,564.826L289.007,332.939L155.827,332.939L155.737,354.803L169.778,354.803L135.438,536.108Z"/>
                </g>
            </g>
            <path d="M67.555,555.717C66.77,556.125 68.234,555.326 67.555,555.717C93.833,536.917 183.938,486.001 355.482,518.106C563.405,557.019 595.349,550.049 720.219,483.258C720.219,483.258 659.236,602.901 375.81,557.019C309.622,546.304 257.085,540.879 215.433,538.857C119.974,537.31 59.192,563.817 59.192,563.817C61.869,560.575 63.616,558.533 67.555,555.717Z" style="fill:rgb(0,113,189);"/>
            <path d="M757.724,455.531C757.724,455.531 792.168,512.338 726.185,589.623C721.533,595.397 716.471,600.82 711.045,605.905C625.225,686.318 448.136,681.924 355.353,634.879C223.398,567.972 108.169,568.436 108.169,568.436C159.743,528.943 383.696,575.406 383.696,575.406C729.382,639.99 757.724,455.531 757.724,455.531Z" style="fill:rgb(0,113,189);"/>
        </g>
    </g>
</svg>
