<svg width="100" height="100" viewBox="0 0 100 100" fill="none" xmlns="http://www.w3.org/2000/svg">
<rect x="1" y="1" width="98" height="98" rx="6" fill="white" stroke="#F9F9F9" stroke-width="2"/>
<g clip-path="url(#clip0_122_22)">
<path fill-rule="evenodd" clip-rule="evenodd" d="M42.9966 68.9729H32.844L38.7852 37.8692H37.3741V35.3097H59.4955V37.8692H58.0843L64.0256 68.9729H52.9508V61.1689C52.9627 61.0287 52.9688 60.8867 52.9688 60.7433C52.9688 57.9834 50.7324 55.7427 47.978 55.7427C45.2236 55.7427 42.9873 57.9834 42.9873 60.7433C42.9873 60.8463 42.9904 60.9485 42.9966 61.0499V68.9729Z" fill="black"/>
<path fill-rule="evenodd" clip-rule="evenodd" d="M48.7805 18.4513V23.8371H48.0563V16.0197H48.0661L48.0582 15.9999H49.9842C54.0851 17.6947 55.8593 17.3212 55.8593 17.3212C53.5972 18.3153 51.5234 17.847 50.7934 17.6237C53.0843 18.7004 55.8811 18.2066 55.8811 18.2066C54.8248 18.9122 53.306 18.9399 53.306 18.9399H52.1116C50.7241 18.9676 48.791 18.4695 48.791 18.4695L48.7805 18.4513Z" fill="black"/>
<path fill-rule="evenodd" clip-rule="evenodd" d="M61.7359 26.8056H64.5487L58.4916 33.9633H38.8719L32.321 26.8056H35.3375V23.782H39.0834V26.8056H41.0006V23.782H44.7465V26.8056H46.6637V23.782H50.4096V26.8056H52.3268V23.782H56.0728V26.8056H57.9899V23.782H61.7359V26.8056Z" fill="black"/>
<path fill-rule="evenodd" clip-rule="evenodd" d="M35.3924 38.6353H37.2604L36.2998 42.9756H22.3611L18.1138 38.6353H20.2812V35.9471H24.0156V38.6353H25.9695V35.9471H29.704V38.6353H31.6579V35.9471H35.3924V38.6353Z" fill="black"/>
<path fill-rule="evenodd" clip-rule="evenodd" d="M61.3852 38.6353H59.5172L60.4778 42.9756H74.4165L78.6638 38.6353H76.4964V35.9471H72.762V38.6353H70.808V35.9471H67.0736V38.6353H65.1196V35.9471H61.3852V38.6353Z" fill="black"/>
<path fill-rule="evenodd" clip-rule="evenodd" d="M17.7059 69.0667L21.9433 46.6502H20.2774L20.2881 44.051H36.0891L31.1643 68.8469C29.5082 68.7039 27.9684 68.6003 26.5371 68.5308C23.2128 68.4768 20.243 68.71 17.7059 69.0667Z" fill="black"/>
<path fill-rule="evenodd" clip-rule="evenodd" d="M78.9086 68.204C75.8789 69.6987 71.7403 71.0308 66.1637 71.618L60.6885 44.051H76.4895L76.5002 46.6502H74.8343L78.9086 68.204Z" fill="black"/>
<path fill-rule="evenodd" clip-rule="evenodd" d="M8.99222 70.5351C9.07278 70.4886 8.89908 70.5836 8.99222 70.5351C12.1099 68.3001 22.8004 62.2472 43.153 66.0639C67.8219 70.6899 71.6118 69.8613 86.4269 61.9211C86.4269 61.9211 79.1917 76.1444 45.5648 70.6899C37.712 69.4161 31.4788 68.7711 26.5371 68.5308C15.2114 68.3469 8 71.498 8 71.498C8.31761 71.1126 8.52488 70.8699 8.99222 70.5351Z" fill="#0071BD"/>
<path fill-rule="evenodd" clip-rule="evenodd" d="M90.8766 58.6249C90.8766 58.6249 94.9632 65.3782 87.1347 74.5659C86.5828 75.2523 85.9822 75.897 85.3385 76.5015C75.1564 86.0611 54.1459 85.5387 43.1377 79.946C27.482 71.992 13.8108 72.0471 13.8108 72.0471C19.9297 67.3522 46.5004 72.8758 46.5004 72.8758C87.514 80.5536 90.8766 58.6249 90.8766 58.6249Z" fill="#0071BD"/>
</g>
<defs>
<clipPath id="clip0_122_22">
<rect width="84" height="68" fill="white" transform="translate(8 16)"/>
</clipPath>
</defs>
</svg>
